<?xml version="1.0" standalone="no"?>
<!DOCTYPE svg PUBLIC "-//W3C//DTD SVG 20010904//EN"
 "http://www.w3.org/TR/2001/REC-SVG-20010904/DTD/svg10.dtd">
<svg version="1.0" xmlns="http://www.w3.org/2000/svg"
 width="512.000000pt" height="512.000000pt" viewBox="0 0 512.000000 512.000000"
 preserveAspectRatio="xMidYMid meet">
<metadata>
Created by potrace 1.11, written by Peter Selinger 2001-2013
</metadata>
<g transform="translate(0.000000,512.000000) scale(0.100000,-0.100000)"
fill="#000000" stroke="none">
<path d="M0 2560 l0 -2560 2560 0 2560 0 0 2560 0 2560 -2560 0 -2560 0 0
-2560z m2305 1665 c149 -30 269 -71 396 -136 408 -209 698 -564 760 -933 7
-41 9 -124 6 -210 -5 -155 -21 -230 -82 -379 -43 -106 -85 -274 -85 -339 0
-107 54 -193 229 -368 123 -123 186 -174 518 -420 89 -67 169 -131 178 -143 8
-12 15 -38 15 -58 0 -33 -11 -49 -100 -145 -122 -132 -223 -221 -260 -229 -18
-4 -40 0 -59 9 -33 18 -40 26 -277 346 -259 348 -476 553 -617 582 -69 15
-158 -3 -353 -68 -225 -75 -289 -87 -459 -88 -125 0 -166 4 -245 23 -213 53
-390 158 -565 335 -290 292 -455 687 -455 1086 0 223 33 377 119 555 140 291
387 489 710 571 192 49 414 52 626 9z m1784 -180 c69 -38 135 -112 161 -183
32 -82 25 -197 -15 -277 -59 -115 -173 -185 -304 -185 -97 0 -163 24 -228 84
-215 196 -120 546 162 595 69 12 166 -3 224 -34z"/>
</g>
</svg>
