<svg xmlns="http://www.w3.org/2000/svg" version="1" viewBox="0 0 512 512">
  <path d="M0 256v256h512V0H0v256zM231 90c14 3 26 7 39 13 41 21 70 57 76 93a127 127 0 0 1-7 59c-5 11-9 28-9 34 0 11 5 19 23 37 12 12 19 17 52 42l18 14 1 6c0 3-1 5-10 15a99 99 0 0 1-26 23l-6-1c-3-2-4-3-28-35-25-35-47-55-61-58-7-2-16 0-36 7-22 7-28 8-45 8-13 0-17 0-25-2-21-5-39-16-56-33-29-30-46-69-46-109 0-22 3-38 12-55 14-30 39-49 71-58 19-4 41-5 63 0zm178 18c7 3 13 11 16 18 3 8 3 20-1 28-6 11-18 18-31 18-10 0-16-2-23-8-21-20-12-55 17-60 6-1 16 0 22 3z"/>
</svg>
