<svg xmlns="http://www.w3.org/2000/svg" version="1" viewBox="0 0 10800 10840">
  <defs/>
  <path fill="#ff6300" d="M2820 10830c-82-8-190-58-225-103-41-55-54-101-65-229-6-68-15-134-21-147l-10-24-30 29c-17 16-47 56-66 89a758 758 0 01-344 332c-97 45-187 58-295 45-95-13-125-27-154-74-63-103-40-239 236-1386 477-1984 519-2180 518-2437 0-116-2-135-23-175-26-50-47-71-106-102-70-37-105-71-175-168-84-118-147-261-205-471-108-390-156-974-121-1479 9-129 28-361 43-515 21-230 26-336 27-595 0-307-1-318-26-426-33-137-63-205-118-267-86-97-211-142-440-157-361-24-502-49-671-118a821 821 0 01-538-707c-11-103-3-224 19-300 44-151 183-287 455-445 142-82 733-372 986-483 1925-846 3578-635 4923 628 160 150 408 418 548 591 261 323 433 639 468 857 18 113 1 205-46 251-84 81-214 71-340-27-78-61-172-177-254-313-36-59-87-133-115-164-82-94-279-259-450-377-660-455-1463-783-1817-741-237 27-487 134-658 280-92 79-110 106-112 162-1 67 34 131 201 369 235 335 367 562 704 1207 134 256 266 409 429 495 100 53 166 73 333 100 125 21 183 25 357 25 289 0 531-20 1213-100 724-85 1039-110 1405-111 441-2 564 28 909 223 441 250 943 692 1285 1133 179 230 262 370 317 530 21 61 24 87 23 210-1 162-14 228-55 278s-72 54-210 23c-165-38-229-33-314 25a634 634 0 00-145 149 1012 1012 0 00-103 557c24 222 81 338 265 533 84 89 106 118 138 191 57 128 84 286 75 449-23 425-135 805-472 1595-180 422-306 782-342 982-23 130-25 134-83 190-80 77-208 112-408 113-286 0-337-87-359-611-6-134-15-548-22-919-12-783-26-962-72-948-26 8-90 153-156 353-39 116-149 478-246 805-196 661-255 832-345 999-67 124-165 254-220 292-52 35-119 32-154-7-32-37-62-110-81-199-29-139-54-602-65-1190-19-1023-83-1561-227-1900-66-154-112-213-202-260-44-22-130-16-188 14-227 115-580 173-1173 191-651 20-776 43-887 163-56 61-66 83-181 392-141 380-332 833-714 1700-279 631-340 763-389 830a732 732 0 01-440 285c-93 21-96 21-199 10z"/>
</svg>
