<svg xmlns="http://www.w3.org/2000/svg" version="1" viewBox="0 0 10780 10420">
  <defs/>
  <path fill="#ff4136" d="M5430 10396a503 503 0 01-151-173c-26-62-45-158-59-307-14-138-36-187-98-213-32-13-48-13-145-1-105 14-112 14-164-5-331-122-615-1040-590-1900 15-502 86-749 299-1047 150-209 207-353 167-418-13-22-19-23-76-19-42 3-84 15-130 37-174 83-259 106-538 144-325 45-653 60-1155 53-855-12-1345-78-1680-225-138-61-162-74-202-111-61-55-32-99 158-239 125-91 146-131 108-204-9-18-112-129-228-248-183-187-221-231-284-331a1631 1631 0 01-246-689c-35-268-115-518-284-892-17-38-44-112-61-165-101-333-89-616 29-698l40-28 68 14c104 22 117 16 136-73 10-46-32-289-95-548-84-345-177-799-190-933-18-186 10-311 74-328 44-12 110 17 236 103 63 43 122 78 132 78s23-9 29-21c21-37 23-192 5-404-22-276-21-415 4-495 23-74 45-100 82-100 103 0 188 92 422 458 241 378 403 584 697 887 264 272 530 498 790 671 74 50 248 153 385 229 469 259 792 503 1290 973 268 254 495 384 577 330 45-29 70-149 53-248-24-140-172-270-329-290-107-13-148-29-193-72-132-129-127-393 10-535 42-43 87-62 187-78 114-19 176-72 209-180 33-112 107-177 299-266 245-114 374-191 531-318 156-126 207-143 249-83 50 71 66 234 82 822 12 476 25 691 51 910 22 177 58 313 88 330 65 34 391-169 741-464l350-296c234-199 452-367 614-473 145-95 215-131 284-146 77-16 108-31 228-112 187-125 434-344 720-639 305-315 531-596 773-960 140-211 193-282 261-350 72-73 92-87 133-97 44-10 51-9 76 12 66 56 80 210 52 566-26 327-17 439 35 439 9 0 65-34 126-75 60-42 130-84 156-93 125-48 177 46 160 288-6 94-77 493-144 810-46 216-67 401-59 510 9 110 25 145 84 174 56 29 71 45 106 114 76 153 82 420 14 712-38 168-83 275-193 460-149 250-194 414-162 595 25 141 22 189-22 307-56 150-144 276-380 540-196 220-314 377-327 438-10 45 14 66 83 75 79 10 142 39 177 83 41 51 42 127 2 189-142 222-816 371-1681 374-160 0-552-7-871-17-642-19-815-14-914 27-89 37-91 83-12 251 66 139 87 222 116 450 75 589-35 1475-263 2119-104 294-144 367-361 663-265 361-378 446-491 372z"/>
</svg>
