<svg xmlns="http://www.w3.org/2000/svg" version="1.0" viewBox="0 0 700 700">
  <defs/>
  <path d="M217 25a174 174 0 01-22 1l-12 2A219 219 0 0023 148c-6 12-14 35-15 44l-2 8-3 11-1 7c-2 18-2 56 0 75l2 13 1 5c5 25 18 64 32 89l5 10c13 24 44 62 65 79l4 3 8 6 9 7a230 230 0 0097 38 302 302 0 0074-4c6 0 21-5 41-12 26-9 53-15 64-15 14 0 26 5 43 18a634 634 0 01119 138c9 12 18 24 21 26 7 8 15 8 26 1l54-54c8-9 10-17 6-24-3-5-9-10-47-39a691 691 0 01-115-98c-18-20-26-39-25-55a353 353 0 0119-68l10-30 1-5a205 205 0 00-48-184A312 312 0 00280 28l-7-1-8-1-48-2zM603 59a68 68 0 0011 135h8a68 68 0 00-19-135z"/>
</svg>