<svg xmlns="http://www.w3.org/2000/svg" version="1" viewBox="0 0 10120 10770">
  <defs/>
  <path fill="#001b44" d="M6556 10750c-49-11-249-71-445-134-822-264-843-269-1061-268-96 1-164 7-235 22-103 21-127 28-780 235-214 68-428 131-474 140-112 23-229 18-268-11-74-55-105-275-84-597 15-229 28-292 89-417 56-116 123-186 302-318 188-139 237-181 284-248 80-112 121-256 147-514 7-63 13-519 16-1152l5-1048-48 14-269 71c-444 114-1479 423-2681 799-501 156-907 270-935 261-23-8-41-40-64-120-24-82-33-161-45-360-18-320 19-664 86-796 30-61 101-132 160-162 150-77 535-307 774-464l625-409c354-233 612-385 719-424 139-53 615-370 1211-809l374-277c2-1 23-351 47-776 77-1369 108-1738 179-2107 41-213 114-439 177-546 23-38 73-102 112-141 116-116 243-164 481-183 134-10 332 5 420 33 61 19 158 76 204 119 44 42 107 136 137 203 49 110 102 333 128 534 37 285 45 452 56 1180 5 360 14 752 20 870 26 502 92 736 243 862 70 58 1108 746 1327 879 113 69 243 142 290 164 148 68 380 208 718 434 793 529 1030 678 1279 805 208 107 250 162 305 396 29 122 30 131 31 415 2 314-8 430-48 574-33 120-32 119-157 92-204-45-909-252-3153-924l-780-234-12 39c-23 73-34 253-47 778-15 540-8 1251 13 1425 14 121 45 242 79 317 60 132 148 216 427 408 259 179 378 325 438 540 32 114 47 468 28 635-9 80-44 160-82 188-39 28-153 31-263 7z"/>
</svg>
