<svg xmlns="http://www.w3.org/2000/svg" version="1" viewBox="0 0 10790 8770">
  <defs/>
  <path fill="#357edd" d="M4595 8763c-823-16-1160-33-1485-78-220-30-323-55-690-165-162-49-439-130-615-180s-394-115-485-145c-619-201-824-434-751-850 11-60 31-144 46-185 42-123 162-537 186-645 26-114 31-285 11-322-21-38-43-44-88-24-56 25-106 72-173 160-150 198-269 459-370 809-47 161-60 194-75 189C63 7313-7 6536 6 6220c25-618 190-930 954-1800 817-931 985-1136 966-1185-5-14-15-17-56-13-106 10-312 137-481 296-151 143-206 228-224 347-20 136-123 205-240 161-70-27-95-78-95-190 0-417 498-1108 1105-1532 387-271 696-403 1735-740 543-176 687-234 728-292l21-28-22-26c-33-38-58-50-256-128-207-82-319-141-375-199-49-50-50-80-5-118 65-55 224-86 499-97 517-22 814-86 1235-266 425-181 683-240 1054-240 317 0 504 61 712 232 44 36 87 58 113 58 6 0 30-17 52-38 29-28 56-75 99-168 67-147 115-217 165-237 48-20 83-5 122 50 64 93 93 243 108 558 16 352 35 482 85 605 33 81 48 97 99 112 87 25 106 64 117 248 8 144-2 273-56 712-28 234-30 287-11 373 28 132 107 210 306 300 107 48 288 163 400 254 151 122 406 376 523 521 350 434 521 613 737 770a909 909 0 00336 170c140 34 201 68 246 138 62 95 77 182 84 487 11 399-23 566-147 731-55 72-129 134-309 256-328 224-671 360-910 361-95 1-111-2-168-27-94-43-123-89-151-241-18-97-29-131-59-180-67-110-216-232-382-312-207-99-384-143-700-173-397-38-636-128-845-318a828 828 0 00-249-162c-193-54-287 119-289 535-1 240 23 364 101 520 76 155 174 269 427 504 460 426 881 734 1068 781 107 28 125 178 41 349-66 133-142 196-304 250-259 85-498 81-730-13-243-98-542-326-797-607-434-479-761-1117-864-1684-29-162-31-179-26-375 5-238 8-250 117-531 103-263 130-389 88-397-31-6-131 47-181 96-142 137-406 565-539 870-238 550-281 1198-137 2067 22 132 58 321 80 420 53 235 159 725 159 731 0 4-191 3-485-3z"/>
</svg>
